<svg width="176" height="48" viewBox="0 0 176 48" fill="none" xmlns="http://www.w3.org/2000/svg">
<ellipse cx="23.2941" cy="23.1429" rx="23.2941" ry="23.1429" fill="#F0F7FF"/>
<path d="M27.5774 25.547L27.9144 24.7936C30.5656 18.845 32.4865 14.9778 33.6773 13.1921C33.8683 12.9465 34.0312 12.7568 34.166 12.6229C34.3008 12.4778 34.4524 12.3494 34.6209 12.2378C34.8007 12.1262 35.0309 12.0146 35.3118 11.903C36.1206 11.557 37.1653 11.384 38.446 11.384C39.1088 11.384 39.5244 11.4398 39.6929 11.5514C39.8727 11.6631 39.9625 11.9142 39.9625 12.3048C39.9625 12.6061 39.9513 12.9298 39.9288 13.2758C39.839 15.2847 39.794 16.7133 39.794 17.5615C39.794 19.7043 39.9401 21.7356 40.2321 23.6552C40.4231 24.7267 40.7039 25.8148 41.0747 26.9197C41.4678 27.9019 41.8442 28.6552 42.2036 29.1798C42.6305 29.7601 42.99 30.1843 43.2821 30.4521C43.6415 30.8093 43.8213 31.0827 43.8213 31.2724C43.8213 31.6184 43.5236 32.0872 42.9282 32.6787C41.9284 33.6385 40.9286 34.1184 39.9288 34.1184C38.5246 34.1184 37.2496 33.5213 36.1038 32.3271C35.5196 31.7468 35.0534 31.105 34.7052 30.4019C34.3682 29.6876 34.1154 28.8115 33.9469 27.7735C33.7784 26.7244 33.6661 25.3963 33.6099 23.7892C33.5313 22.0481 33.4863 21.066 33.4751 20.8427H33.4077C32.7 22.1932 32.1102 23.3204 31.6384 24.2244C31.1666 25.1285 30.779 25.8762 30.4757 26.4677C30.1836 27.0593 29.8354 27.768 29.431 28.5939C28.1503 31.2278 27.3134 32.8182 26.9202 33.3651C26.8978 33.3874 26.8528 33.4376 26.7854 33.5157C26.718 33.5939 26.6563 33.6552 26.6001 33.6999C26.4091 33.8785 26.1901 34.018 25.9429 34.1184C25.707 34.2077 25.5048 34.2523 25.3363 34.2523C24.8645 34.2523 24.3421 33.9622 23.7692 33.3818C23.2075 32.7903 22.7132 32.0314 22.2864 31.105C21.8482 30.1229 21.4888 29.124 21.2079 28.1084C20.9383 27.0816 20.6968 25.8706 20.4834 24.4756C20.2812 23.0693 20.1014 21.3561 19.9441 19.336H19.8767C19.5397 20.0726 19.287 20.6251 19.1185 20.9934C18.95 21.3617 18.6916 21.9309 18.3433 22.701C17.9951 23.4711 17.7929 23.9175 17.7367 24.0403C17.2761 25.0559 16.7931 26.0827 16.2876 27.1206C15.7821 28.1586 15.372 28.9566 15.0575 29.5146C14.7542 30.0726 14.4172 30.6251 14.0465 31.172C13.878 31.4287 13.5803 31.7914 13.1534 32.2601C12.4906 32.8851 11.766 33.3762 10.9797 33.7334C10.1933 34.0793 9.44629 34.2523 8.73857 34.2523C8.46896 34.2523 8.23305 34.1854 8.03085 34.0514C7.82864 33.9175 7.72754 33.7445 7.72754 33.5325C7.72754 33.3427 7.87919 33.0916 8.1825 32.7791C8.35101 32.5782 8.7161 32.0648 9.27778 31.2389L10.2551 29.7322C10.8617 28.8394 11.7773 27.2378 13.0017 24.9276L13.8106 23.4209C15.6978 19.8271 16.9728 17.3718 17.6356 16.0548C18.2984 14.7267 18.6298 13.9566 18.6298 13.7445C18.6298 13.5101 18.4613 13.2479 18.1243 12.9577C17.8659 12.7456 17.7367 12.5615 17.7367 12.4052C17.7367 12.1597 18.0625 11.9309 18.7141 11.7189C19.3656 11.4956 20.0733 11.384 20.8372 11.384C22.3762 11.384 23.4715 11.7244 24.1231 12.4052C24.5275 12.8293 24.9038 13.6664 25.252 14.9164C25.6003 16.1552 25.9485 17.9577 26.2968 20.3238C26.3192 20.4577 26.3361 20.5637 26.3473 20.6418C26.3586 20.7088 26.3698 20.7702 26.381 20.826C26.3923 20.8818 26.3979 20.9543 26.3979 21.0436C26.4653 21.3561 26.499 21.5626 26.499 21.6631C26.7349 23.1028 26.9146 24.0347 27.0382 24.4588C27.1618 24.8718 27.3415 25.2345 27.5774 25.547Z" fill="url(#paint0_linear_307_549)"/>
<path d="M55.9368 22.8014L56.1558 22.0816C56.4479 20.9655 56.8917 20.1061 57.487 19.5035C57.869 19.124 58.3071 18.8115 58.8014 18.566C59.2957 18.3204 59.745 18.1976 60.1494 18.1976C60.8908 18.1976 61.2615 18.5101 61.2615 19.1351C61.2615 19.4476 61.1604 19.9331 60.9582 20.5916C60.756 21.2501 60.4864 21.9979 60.1494 22.8349C59.8236 23.6608 59.4361 24.5704 58.9867 25.5637C58.5486 26.557 58.06 27.5782 57.5207 28.6273C56.5434 30.6139 55.5548 32.2936 54.555 33.6664C53.8361 34.6485 53.1059 35.5191 52.3645 36.278C51.6231 37.0369 50.8423 37.7177 50.0223 38.3204C49.2134 38.9231 48.4439 39.3751 47.7137 39.6764C46.9948 39.9889 46.332 40.1452 45.7254 40.1452C45.2199 40.1452 44.9671 39.9276 44.9671 39.4923C44.9671 39.1463 45.0458 38.7334 45.203 38.2535C45.3603 37.7735 45.5794 37.3215 45.8602 36.8974C46.1635 36.4956 46.5454 36.1385 47.006 35.826C47.5902 35.4242 48.4496 34.9666 49.5842 34.4532C48.9101 33.326 48.399 32.4331 48.0508 31.7747C47.7025 31.1162 47.3206 30.2959 46.9049 29.3137C45.9838 27.1374 45.5232 25.1619 45.5232 23.3874C45.5232 22.0369 45.6917 20.9376 46.0287 20.0894C46.332 19.3639 46.8881 18.8506 47.6969 18.5492C48.3485 18.2925 48.9326 18.1642 49.4493 18.1642C50.1795 18.1642 50.6682 18.4432 50.9153 19.0012C51.1737 19.5481 51.3984 20.8372 51.5894 22.8684C51.7916 25.0447 52.1173 27.1932 52.5667 29.3137C52.6453 29.6374 52.7352 30.0838 52.8363 30.653H52.9037C53.207 29.9945 53.5384 29.1965 53.8979 28.259C54.0102 27.9912 54.4034 27.0035 55.0774 25.2959C55.4594 24.2691 55.7458 23.4376 55.9368 22.8014Z" fill="url(#paint1_linear_307_549)"/>
<path d="M67.4625 16.4566L67.9175 15.3182C67.5805 15.3517 67.2322 15.4019 66.8728 15.4689C66.6481 15.5135 66.3392 15.5358 65.946 15.5358C65.3955 15.5358 65.1203 15.2624 65.1203 14.7155C65.1203 14.4811 65.1877 14.2077 65.3225 13.8952C65.4685 13.5715 65.6314 13.326 65.8112 13.1586C66.2044 12.7903 67.0244 12.4889 68.2713 12.2546C69.5295 12.0202 71.0011 11.903 72.6862 11.903C73.978 11.903 75.2081 12.076 76.3764 12.422C77.556 12.768 78.5726 13.2479 79.4264 13.8617C80.2801 14.4644 80.9429 15.1619 81.4147 15.9543C81.8978 16.7356 82.1393 17.5894 82.1393 18.5157C82.1393 19.509 81.9315 20.4354 81.5158 21.2947C81.1002 22.143 80.5104 22.8851 79.7465 23.5213C79.241 23.9454 78.7692 24.2691 78.3311 24.4923C77.893 24.7155 77.2639 24.9499 76.4438 25.1954C76.6573 25.586 76.8426 25.8874 76.9999 26.0994C77.1684 26.3115 77.4436 26.6072 77.8256 26.9867C78.8366 27.8907 80.2857 28.711 82.173 29.4476C82.2629 29.4923 82.3752 29.5369 82.51 29.5816C82.3078 30.5302 82.1168 31.2222 81.9371 31.6575C81.7574 32.0927 81.4765 32.5671 81.0946 33.0805C80.3981 33.9956 79.5612 34.4532 78.5838 34.4532C78.0446 34.4532 77.3762 34.2579 76.5786 33.8673C75.7923 33.4655 75.1463 32.9968 74.6408 32.461C74.2477 32.0035 73.8826 31.518 73.5455 31.0046C73.2198 30.4912 72.8884 29.9108 72.5514 29.2635C72.2144 28.605 71.9223 27.9689 71.6751 27.355C71.4392 26.73 71.2651 26.1831 71.1528 25.7144C71.1303 25.6251 71.1191 25.4968 71.1191 25.3293C71.1191 25.095 71.1865 24.9108 71.3213 24.7769C71.4561 24.643 71.7032 24.5202 72.0627 24.4086C72.5682 24.23 72.9839 24.0347 73.3096 23.8226C73.6354 23.5994 74.0454 23.259 74.5397 22.8014C75.1014 22.1876 75.5395 21.4733 75.8541 20.6586C76.1798 19.8327 76.3427 19.0012 76.3427 18.1642C76.3427 17.1709 76.1124 16.4008 75.6519 15.8539C75.1913 15.2959 74.4555 14.9052 73.4445 14.682C72.4784 18.1753 71.5235 21.4622 70.5799 24.5425L70.226 25.8148C69.6419 27.8238 69.1476 29.3137 68.7432 30.2847C68.35 31.2557 67.9568 31.9365 67.5636 32.3271C67.1704 32.7177 66.5582 33.1028 65.7269 33.4822C64.8956 33.8617 64.2441 34.0514 63.7723 34.0514C62.8511 34.0514 62.3905 33.538 62.3905 32.5113C62.3905 32.0872 62.5141 31.3617 62.7612 30.3349C63.0196 29.297 63.4128 27.9465 63.9408 26.2836C64.4688 24.6095 65.0192 22.9744 65.5921 21.3785C66.1763 19.7825 66.7997 18.1418 67.4625 16.4566Z" fill="url(#paint2_linear_307_549)"/>
<path d="M89.7894 29.0793C90.3062 28.7334 90.6993 28.3874 90.969 28.0414C91.5643 27.316 92.0249 26.4845 92.3507 25.547C92.6091 24.9331 92.8113 24.2468 92.9573 23.4878C93.1033 22.7289 93.1764 22.0202 93.1764 21.3617C93.1764 20.7479 93.0472 20.441 92.7888 20.441C92.4293 20.441 91.8789 21.2278 91.1375 22.8014C90.6993 23.7501 90.3399 24.6988 90.059 25.6474C89.7894 26.5849 89.6546 27.3941 89.6546 28.0749C89.6546 28.3093 89.6996 28.6441 89.7894 29.0793ZM89.8231 29.6151C89.9467 30.2847 90.3848 30.6195 91.1375 30.6195C91.98 30.6195 93.0753 30.1285 94.4233 29.1463C95.2097 28.5771 95.7376 28.2925 96.0073 28.2925C96.3443 28.2925 96.6588 28.3818 96.9509 28.5604C97.243 28.7389 97.389 28.9231 97.389 29.1128C97.389 29.3137 97.2261 29.576 96.9003 29.8997C96.3049 30.4912 95.6197 31.0715 94.8446 31.6407C94.0694 32.1988 93.3224 32.6675 92.6035 33.047C91.8845 33.4153 91.1655 33.711 90.4466 33.9343C89.7276 34.1463 89.0873 34.2523 88.5256 34.2523C87.1214 34.2523 85.9981 33.8561 85.1555 33.0637C84.313 32.2601 83.8917 31.1943 83.8917 29.8662C83.8917 28.8505 84.1108 27.7066 84.5489 26.4343C84.9983 25.1508 85.5993 23.951 86.3519 22.8349C87.2394 21.5291 88.329 20.441 89.6209 19.5704C91.2161 18.5213 92.7439 17.9968 94.2042 17.9968C95.2602 17.9968 96.0859 18.3316 96.6813 19.0012C97.2879 19.6597 97.5912 20.5693 97.5912 21.73C97.5912 22.634 97.3497 23.5771 96.8666 24.5593C96.3948 25.5414 95.6927 26.4845 94.7603 27.3885C93.9964 28.1474 93.2438 28.7389 92.5023 29.163C91.7722 29.5872 91.1318 29.7992 90.5814 29.7992C90.3343 29.7992 90.0815 29.7378 89.8231 29.6151Z" fill="url(#paint3_linear_307_549)"/>
<path d="M103.725 35.0057C104.388 34.9722 104.989 34.6541 105.528 34.0514C106.078 33.4376 106.353 32.7735 106.353 32.0593C106.353 31.5682 106.191 31.1776 105.865 30.8874C105.517 30.5414 104.736 30.201 103.523 29.8662C101.736 29.3528 100.574 28.778 100.035 28.1418C99.529 27.6285 99.2762 27.0146 99.2762 26.3003C99.2762 25.0168 99.7424 23.7334 100.675 22.4499C101.618 21.1664 102.82 20.1173 104.281 19.3026C105.741 18.4767 107.213 18.0637 108.696 18.0637C109.415 18.0637 110.089 18.2311 110.718 18.566C111.347 18.9008 111.847 19.3472 112.217 19.9052C112.588 20.4521 112.773 21.0492 112.773 21.6965C112.773 22.3327 112.571 22.9912 112.167 23.672C111.762 24.3528 111.251 24.922 110.633 25.3796C110.027 25.826 109.448 26.0492 108.898 26.0492C108.583 26.0492 108.308 25.9822 108.072 25.8483C107.848 25.7144 107.735 25.5693 107.735 25.4131C107.735 25.2568 107.78 25.028 107.87 24.7267C108.117 23.7668 108.241 22.9298 108.241 22.2155C108.241 21.5124 108.027 20.8483 107.6 20.2233C107.05 20.6028 106.69 20.9041 106.522 21.1273C106.095 21.6184 105.764 22.1764 105.528 22.8014C105.269 23.4376 105.14 24.0403 105.14 24.6095C105.14 25.0113 105.23 25.3349 105.41 25.5805C105.601 25.8148 105.904 26.0157 106.32 26.1831C106.747 26.3505 107.387 26.5347 108.241 26.7356C109.667 27.0816 110.673 27.4164 111.257 27.7401C111.392 27.8182 111.6 27.98 111.88 28.2255C112.307 28.6831 112.521 29.2747 112.521 30.0001C112.521 30.7702 112.279 31.5514 111.796 32.3439C111.313 33.1251 110.566 33.9343 109.555 34.7713C108.477 35.6753 107.404 36.3226 106.337 36.7133C105.269 37.1039 104.09 37.2992 102.798 37.2992C101.551 37.2992 100.568 37.0537 99.8492 36.5626C99.1414 36.0715 98.7876 35.4019 98.7876 34.5537C98.7876 33.951 99.0235 33.3427 99.4953 32.7289C99.9671 32.1039 100.551 31.5961 101.248 31.2055C101.955 30.8148 102.646 30.6195 103.32 30.6195C103.826 30.6195 104.079 30.7311 104.079 30.9543C104.079 31.066 104.006 31.2501 103.86 31.5068C103.421 32.288 103.202 33.0079 103.202 33.6664C103.202 34.1351 103.377 34.5816 103.725 35.0057Z" fill="url(#paint4_linear_307_549)"/>
<path d="M124.586 29.0459L124.299 29.2802C124.243 29.3137 123.867 29.5983 123.17 30.134C121.822 31.1831 120.71 32.0146 119.834 32.6285C118.958 33.2311 118.227 33.6776 117.643 33.9677C117.059 34.2468 116.587 34.3863 116.228 34.3863C115.621 34.3863 115.133 34.1407 114.762 33.6497C114.402 33.1474 114.223 32.5001 114.223 31.7077C114.223 30.3684 114.425 28.8115 114.829 27.0369C115.234 25.2512 115.778 23.4934 116.464 21.7635C117.216 19.8439 118.138 18.672 119.227 18.2479C119.609 18.0805 120.059 17.9968 120.575 17.9968C121.283 17.9968 121.856 18.2144 122.294 18.6497C122.732 19.0849 122.951 19.6597 122.951 20.374C122.951 20.8651 122.867 21.384 122.698 21.9309C122.53 22.4778 122.26 23.1307 121.89 23.8896L121.687 24.3751C120.721 26.4064 120.238 27.6396 120.238 28.0749C120.238 28.3316 120.328 28.4599 120.508 28.4599C120.676 28.4599 120.895 28.3427 121.165 28.1084C121.435 27.874 121.85 27.4443 122.412 26.8193C122.76 26.3952 123.254 25.8651 123.895 25.2289L124.518 24.6095L125.057 24.0403C126.192 22.9242 127.119 22.1206 127.838 21.6296C128.557 21.1273 129.152 20.8762 129.624 20.8762C130.523 20.8762 130.972 21.6519 130.972 23.2032C130.972 23.5269 130.933 24.1017 130.854 24.9276C130.719 26.5347 130.652 27.8963 130.652 29.0124C130.663 29.2356 130.669 29.4421 130.669 29.6318C130.68 29.8104 130.686 30.0447 130.686 30.3349C130.764 31.0827 130.82 31.6575 130.854 32.0593C130.933 32.6954 130.972 33.0135 130.972 33.0135C130.972 33.3483 130.669 33.6441 130.062 33.9008C129.455 34.1575 128.753 34.2858 127.956 34.2858C127.226 34.2858 126.597 34.1463 126.069 33.8673C125.552 33.5771 125.159 33.153 124.889 32.595C124.619 32.0369 124.485 31.3561 124.485 30.5526C124.485 30.4521 124.496 30.2791 124.518 30.0336C124.541 29.7769 124.563 29.4476 124.586 29.0459Z" fill="url(#paint5_linear_307_549)"/>
<path d="M150.889 28.2255L146.289 32.913C145.694 33.5046 145.211 33.9119 144.84 34.1351C144.48 34.3472 144.082 34.4532 143.644 34.4532C142.958 34.4532 142.38 34.2021 141.908 33.6999C141.447 33.1865 141.217 32.5615 141.217 31.8249C141.217 31.3673 141.285 30.8706 141.419 30.3349C141.565 29.788 141.846 28.9789 142.262 27.9075C142.34 27.6843 142.413 27.4945 142.481 27.3383C142.56 27.1709 142.621 27.0314 142.666 26.9197L142.599 26.8528C141.509 27.9912 140.442 29.191 139.397 30.4521C138.521 31.4901 137.825 32.2657 137.308 32.7791C136.791 33.2925 136.325 33.6776 135.909 33.9343C135.494 34.191 135.123 34.3193 134.797 34.3193C134.067 34.3193 133.488 34.0347 133.061 33.4655C132.635 32.8963 132.421 32.1206 132.421 31.1385C132.421 29.8997 132.96 27.8963 134.039 25.1285C135.005 22.6731 135.752 21.0269 136.28 20.1898C137.055 19.0291 137.943 18.4488 138.942 18.4488C139.549 18.4488 140.049 18.5939 140.442 18.884C140.846 19.1631 141.049 19.5314 141.049 19.9889C141.049 20.826 140.728 22.1039 140.088 23.8226C139.841 24.4588 139.588 25.1787 139.33 25.9822L139.397 26.0492C139.813 25.5916 140.481 24.8048 141.402 23.6887C142.986 21.7468 144.183 20.4242 144.992 19.7211C146.036 18.7613 146.991 18.2814 147.856 18.2814C148.238 18.2814 148.603 18.4097 148.951 18.6664C149.3 18.9231 149.575 19.2691 149.777 19.7043C149.991 20.1285 150.097 20.5749 150.097 21.0436C150.097 21.5235 149.749 22.7512 149.053 24.7267C148.907 25.1396 148.794 25.4633 148.716 25.6976C148.637 25.932 148.564 26.1329 148.497 26.3003L148.581 26.3673C148.738 26.211 148.878 26.0715 149.002 25.9488C149.126 25.826 149.26 25.6976 149.406 25.5637C149.564 25.4186 149.71 25.2847 149.845 25.1619C150.148 24.8718 150.912 24.1072 152.136 22.8684C152.945 21.9756 153.58 21.3673 154.04 21.0436C154.501 20.7088 154.945 20.5414 155.372 20.5414C156.068 20.5414 156.596 20.7814 156.955 21.2613C157.326 21.73 157.512 22.4276 157.512 23.3539C157.512 23.9231 157.422 24.8215 157.242 26.0492C157.085 27.4331 156.972 28.5213 156.905 29.3137C156.849 30.095 156.821 30.6418 156.821 30.9543C156.821 31.1887 156.832 31.4901 156.854 31.8584C156.888 32.2155 156.939 32.6005 157.006 33.0135C157.073 33.4264 157.163 33.884 157.276 34.3863C157.41 35.0001 157.5 35.48 157.545 35.826C157.455 36.2278 157.158 36.5682 156.652 36.8472C156.158 37.1262 155.619 37.2657 155.035 37.2657C154.113 37.2657 153.248 36.8528 152.44 36.0269C152.08 35.6474 151.799 35.2624 151.597 34.8718C151.406 34.4923 151.266 34.0403 151.176 33.5157C151.097 32.98 151.058 32.2769 151.058 31.4064C151.058 30.8372 151.125 29.6597 151.26 27.874L151.193 27.807L150.889 28.2255Z" fill="url(#paint6_linear_307_549)"/>
<path d="M164.943 29.0793C165.459 28.7334 165.853 28.3874 166.122 28.0414C166.718 27.316 167.178 26.4845 167.504 25.547C167.762 24.9331 167.964 24.2468 168.11 23.4878C168.257 22.7289 168.33 22.0202 168.33 21.3617C168.33 20.7479 168.2 20.441 167.942 20.441C167.583 20.441 167.032 21.2278 166.291 22.8014C165.853 23.7501 165.493 24.6988 165.212 25.6474C164.943 26.5849 164.808 27.3941 164.808 28.0749C164.808 28.3093 164.853 28.6441 164.943 29.0793ZM164.976 29.6151C165.1 30.2847 165.538 30.6195 166.291 30.6195C167.133 30.6195 168.228 30.1285 169.576 29.1463C170.363 28.5771 170.891 28.2925 171.16 28.2925C171.497 28.2925 171.812 28.3818 172.104 28.5604C172.396 28.7389 172.542 28.9231 172.542 29.1128C172.542 29.3137 172.379 29.576 172.054 29.8997C171.458 30.4912 170.773 31.0715 169.998 31.6407C169.223 32.1988 168.476 32.6675 167.757 33.047C167.038 33.4153 166.319 33.711 165.6 33.9343C164.881 34.1463 164.24 34.2523 163.679 34.2523C162.275 34.2523 161.151 33.8561 160.309 33.0637C159.466 32.2601 159.045 31.1943 159.045 29.8662C159.045 28.8505 159.264 27.7066 159.702 26.4343C160.151 25.1508 160.752 23.951 161.505 22.8349C162.393 21.5291 163.482 20.441 164.774 19.5704C166.369 18.5213 167.897 17.9968 169.357 17.9968C170.413 17.9968 171.239 18.3316 171.834 19.0012C172.441 19.6597 172.744 20.5693 172.744 21.73C172.744 22.634 172.503 23.5771 172.02 24.5593C171.548 25.5414 170.846 26.4845 169.913 27.3885C169.15 28.1474 168.397 28.7389 167.656 29.163C166.925 29.5872 166.285 29.7992 165.735 29.7992C165.487 29.7992 165.235 29.7378 164.976 29.6151Z" fill="url(#paint7_linear_307_549)"/>
<defs>
<linearGradient id="paint0_linear_307_549" x1="7.72754" y1="11.384" x2="17.4577" y2="67.2105" gradientUnits="userSpaceOnUse">
<stop stop-color="#3B7FCF"/>
<stop offset="1" stop-color="#64ABFF"/>
</linearGradient>
<linearGradient id="paint1_linear_307_549" x1="7.72754" y1="11.384" x2="17.4577" y2="67.2105" gradientUnits="userSpaceOnUse">
<stop stop-color="#3B7FCF"/>
<stop offset="1" stop-color="#64ABFF"/>
</linearGradient>
<linearGradient id="paint2_linear_307_549" x1="7.72754" y1="11.384" x2="17.4577" y2="67.2105" gradientUnits="userSpaceOnUse">
<stop stop-color="#3B7FCF"/>
<stop offset="1" stop-color="#64ABFF"/>
</linearGradient>
<linearGradient id="paint3_linear_307_549" x1="7.72754" y1="11.384" x2="17.4577" y2="67.2105" gradientUnits="userSpaceOnUse">
<stop stop-color="#3B7FCF"/>
<stop offset="1" stop-color="#64ABFF"/>
</linearGradient>
<linearGradient id="paint4_linear_307_549" x1="7.72754" y1="11.384" x2="17.4577" y2="67.2105" gradientUnits="userSpaceOnUse">
<stop stop-color="#3B7FCF"/>
<stop offset="1" stop-color="#64ABFF"/>
</linearGradient>
<linearGradient id="paint5_linear_307_549" x1="7.72754" y1="11.384" x2="17.4577" y2="67.2105" gradientUnits="userSpaceOnUse">
<stop stop-color="#3B7FCF"/>
<stop offset="1" stop-color="#64ABFF"/>
</linearGradient>
<linearGradient id="paint6_linear_307_549" x1="7.72754" y1="11.384" x2="17.4577" y2="67.2105" gradientUnits="userSpaceOnUse">
<stop stop-color="#3B7FCF"/>
<stop offset="1" stop-color="#64ABFF"/>
</linearGradient>
<linearGradient id="paint7_linear_307_549" x1="7.72754" y1="11.384" x2="17.4577" y2="67.2105" gradientUnits="userSpaceOnUse">
<stop stop-color="#3B7FCF"/>
<stop offset="1" stop-color="#64ABFF"/>
</linearGradient>
</defs>
</svg>
